<svg width="256" height="256" viewBox="0 0 256 256" fill="none" xmlns="http://www.w3.org/2000/svg">
<g clip-path="url(#clip0_2_14)">
<g clip-path="url(#clip1_2_14)">
<path fill-rule="evenodd" clip-rule="evenodd" d="M128 0H0V128V256C2.38618 256 4.75712 255.935 7.11111 255.806C72.1419 252.245 124.245 200.142 127.806 135.111C127.935 132.757 128 130.386 128 128H192H256C185.308 128 128 185.308 128 256H256V128V0C253.614 0 251.243 0.0652941 248.889 0.194187C183.858 3.75511 131.755 55.8581 128.194 120.889C128.065 123.243 128 125.614 128 128H0C70.6924 128 128 70.6924 128 0ZM248.889 120.889H192.103H135.317C138.861 59.7867 187.787 10.8611 248.889 7.31679V120.889ZM7.11111 135.111H120.683C117.139 196.213 68.2133 245.139 7.11111 248.683V135.111Z" fill="black"/>
</g>
<path d="M207.46 240V214.848L180.772 176.448H189.508L211.012 207.36L232.516 176.448H241.252L214.66 214.848V240H207.46Z" fill="white"/>
<path d="M45.9968 74.768C39.7248 74.768 34.6368 73.936 30.7328 72.272C26.8288 70.544 23.8848 68.176 21.9008 65.168C19.9808 62.16 18.8608 58.768 18.5408 54.992H26.0288C26.2208 58.064 27.2448 60.56 29.1008 62.48C30.9568 64.336 33.3888 65.712 36.3968 66.608C39.4688 67.504 42.8288 67.952 46.4768 67.952C51.8528 67.952 56.1088 67.024 59.2448 65.168C62.3808 63.248 63.9487 60.432 63.9487 56.72C63.9487 54.48 63.1488 52.688 61.5488 51.344C60.0128 49.936 57.9328 48.784 55.3088 47.888C52.7488 46.992 49.9328 46.192 46.8608 45.488C43.7888 44.72 40.6848 43.92 37.5488 43.088C34.4768 42.256 31.6288 41.2 29.0048 39.92C26.4448 38.64 24.3648 37.008 22.7648 35.024C21.2288 32.976 20.4608 30.384 20.4608 27.248C20.4608 22.064 22.4448 17.84 26.4128 14.576C30.4448 11.312 36.4288 9.68 44.3648 9.68C49.9968 9.68 54.6368 10.544 58.2848 12.272C61.9328 13.936 64.6528 16.144 66.4448 18.896C68.3008 21.648 69.3248 24.624 69.5168 27.824H62.1248C61.7408 24.624 60.1408 21.936 57.3248 19.76C54.5088 17.52 50.1888 16.4 44.3648 16.4C40.7808 16.4 37.8688 16.752 35.6288 17.456C33.3888 18.16 31.6608 19.088 30.4448 20.24C29.2928 21.328 28.4928 22.48 28.0448 23.696C27.6608 24.912 27.4688 26.064 27.4688 27.152C27.4688 29.264 28.2368 30.992 29.7728 32.336C31.3728 33.616 33.4528 34.704 36.0128 35.6C38.6368 36.432 41.5168 37.2 44.6528 37.904C47.7888 38.608 50.8928 39.408 53.9648 40.304C57.1008 41.136 59.9488 42.224 62.5088 43.568C65.1328 44.848 67.2128 46.512 68.7488 48.56C70.3488 50.608 71.1488 53.232 71.1488 56.432C71.1488 62.32 68.9088 66.864 64.4288 70.064C59.9488 73.2 53.8048 74.768 45.9968 74.768Z" fill="white"/>
</g>
<defs>
<clipPath id="clip0_2_14">
<rect width="256" height="256" fill="white"/>
</clipPath>
<clipPath id="clip1_2_14">
<rect width="256" height="256" fill="white"/>
</clipPath>
</defs>
</svg>
